<svg width="20" height="20" viewBox="0 0 20 20" fill="none" xmlns="http://www.w3.org/2000/svg">
<path id="Vector" d="M9.54819 0C4.27282 0 0 4.4775 0 10C0 14.4192 2.73556 18.1667 6.52858 19.4875C7.00599 19.5817 7.18104 19.2725 7.18104 19.0067C7.18104 18.7692 7.17308 18.14 7.1691 17.3067C4.51311 17.91 3.95295 15.965 3.95295 15.965C3.51851 14.8108 2.89072 14.5025 2.89072 14.5025C2.02581 13.8825 2.95755 13.895 2.95755 13.895C3.91635 13.965 4.42002 14.925 4.42002 14.925C5.2714 16.4542 6.65509 16.0125 7.20093 15.7567C7.28686 15.11 7.53273 14.6692 7.80565 14.4192C5.68515 14.1692 3.45645 13.3092 3.45645 9.4775C3.45645 8.38583 3.82644 7.49417 4.43911 6.79417C4.3317 6.54167 4.00945 5.525 4.52266 4.1475C4.52266 4.1475 5.32232 3.87917 7.14841 5.1725C7.91227 4.95 8.72387 4.84 9.53546 4.835C10.3471 4.84 11.1587 4.95 11.9225 5.1725C13.7367 3.87917 14.5363 4.1475 14.5363 4.1475C15.0495 5.525 14.7273 6.54167 14.6318 6.79417C15.2405 7.49417 15.6105 8.38583 15.6105 9.4775C15.6105 13.3192 13.3786 14.165 11.2541 14.4108C11.5883 14.7108 11.8986 15.3242 11.8986 16.2608C11.8986 17.5992 11.8867 18.6742 11.8867 18.9992C11.8867 19.2617 12.0538 19.5742 12.5431 19.4742C16.3632 18.1625 19.0964 14.4125 19.0964 10C19.0964 4.4775 14.8212 0 9.54819 0Z" fill="white"/>
</svg>
