<svg width="45" height="45" viewBox="0 0 45 45" fill="none" xmlns="http://www.w3.org/2000/svg">
<g id="ri:kakao-talk-fill">
<path id="Vector" d="M22.5 5.625C33.375 5.625 42.1893 12.495 42.1893 20.9719C42.1893 29.4469 33.375 36.3169 22.5018 36.3169C21.4192 36.3174 20.3376 36.2485 19.2637 36.1106L10.9987 41.5162C10.0593 42.0131 9.72746 41.9587 10.1137 40.7419L11.7862 33.8456C6.38621 31.1081 2.81433 26.3644 2.81433 20.9719C2.81433 12.4969 11.6268 5.625 22.5018 5.625H22.5ZM33.5775 20.7375L36.3337 18.0675C36.4927 17.9023 36.5815 17.6819 36.5812 17.4526C36.5809 17.2233 36.4917 17.0031 36.3322 16.8383C36.1728 16.6735 35.9556 16.577 35.7264 16.5692C35.4973 16.5613 35.274 16.6427 35.1037 16.7962L31.4887 20.295V17.4037C31.4887 17.169 31.3955 16.9439 31.2295 16.778C31.0635 16.612 30.8384 16.5188 30.6037 16.5188C30.369 16.5188 30.1439 16.612 29.9779 16.778C29.8119 16.9439 29.7187 17.169 29.7187 17.4037V22.1981C29.6856 22.3349 29.6856 22.4776 29.7187 22.6144V25.3125C29.7187 25.5472 29.8119 25.7723 29.9779 25.9383C30.1439 26.1043 30.369 26.1975 30.6037 26.1975C30.8384 26.1975 31.0635 26.1043 31.2295 25.9383C31.3955 25.7723 31.4887 25.5472 31.4887 25.3125V22.7569L32.2893 21.9825L34.9668 25.7944C35.0337 25.8895 35.1186 25.9706 35.2168 26.0329C35.315 26.0953 35.4245 26.1377 35.5391 26.1577C35.6536 26.1777 35.771 26.175 35.8845 26.1496C35.998 26.1243 36.1054 26.0768 36.2006 26.01C36.2957 25.9431 36.3768 25.8582 36.4392 25.76C36.5015 25.6618 36.5439 25.5523 36.5639 25.4378C36.5839 25.3232 36.5812 25.2058 36.5559 25.0923C36.5305 24.9788 36.4831 24.8714 36.4162 24.7762L33.5775 20.7356V20.7375ZM28.0312 24.345H25.2937V17.4319C25.2832 17.2044 25.1855 16.9898 25.0209 16.8326C24.8562 16.6753 24.6373 16.5876 24.4096 16.5876C24.182 16.5876 23.9631 16.6753 23.7984 16.8326C23.6338 16.9898 23.5361 17.2044 23.5256 17.4319V25.23C23.5256 25.7175 23.9193 26.115 24.4087 26.115H28.0312C28.2659 26.115 28.491 26.0218 28.657 25.8558C28.823 25.6898 28.9162 25.4647 28.9162 25.23C28.9162 24.9953 28.823 24.7702 28.657 24.6042C28.491 24.4382 28.2659 24.345 28.0312 24.345ZM17.0493 22.2994L18.3543 19.0969L19.5506 22.2975L17.0493 22.2994ZM21.78 23.2125L21.7837 23.1825C21.7833 22.9595 21.6981 22.7451 21.5456 22.5825L19.5843 17.3325C19.5021 17.0823 19.3455 16.8632 19.1354 16.7044C18.9254 16.5456 18.6718 16.4546 18.4087 16.4438C18.1437 16.4426 17.8845 16.5222 17.6658 16.6719C17.4471 16.8216 17.2792 17.0344 17.1843 17.2819L14.0681 24.9225C13.9793 25.1398 13.9805 25.3835 14.0714 25.5999C14.1623 25.8163 14.3355 25.9878 14.5528 26.0766C14.7701 26.1653 15.0138 26.1641 15.2302 26.0732C15.4466 25.9823 15.6181 25.8092 15.7068 25.5919L16.3293 24.0675H20.2106L20.7693 25.5675C20.8074 25.6796 20.8677 25.783 20.9465 25.8714C21.0252 25.9598 21.121 26.0315 21.228 26.0823C21.3349 26.133 21.451 26.1618 21.5694 26.1668C21.6877 26.1719 21.8058 26.1532 21.9167 26.1118C22.0277 26.0704 22.1292 26.0071 22.2152 25.9257C22.3013 25.8444 22.3701 25.7466 22.4177 25.6381C22.4653 25.5297 22.4906 25.4128 22.4922 25.2944C22.4937 25.1759 22.4715 25.0584 22.4268 24.9487L21.78 23.2125ZM15.5512 17.4412C15.5512 17.2069 15.4582 16.982 15.2927 16.8161C15.1271 16.6502 14.9025 16.5567 14.6681 16.5562H8.58371C8.34899 16.5562 8.12389 16.6495 7.95792 16.8155C7.79195 16.9814 7.69871 17.2065 7.69871 17.4412C7.69871 17.676 7.79195 17.9011 7.95792 18.067C8.12389 18.233 8.34899 18.3262 8.58371 18.3262H10.7587V25.3312C10.7587 25.566 10.8519 25.7911 11.0179 25.957C11.1839 26.123 11.409 26.2162 11.6437 26.2162C11.8784 26.2162 12.1035 26.123 12.2695 25.957C12.4355 25.7911 12.5287 25.566 12.5287 25.3312V18.3262H14.6662C14.9009 18.3262 15.126 18.233 15.292 18.067C15.458 17.9011 15.5512 17.676 15.5512 17.4412Z" fill="#1E1E1E"/>
</g>
</svg>
