<svg width="230" height="253" viewBox="0 0 230 253" fill="none" xmlns="http://www.w3.org/2000/svg">
<path d="M215.625 63.125H172.5V50.5C172.5 37.1066 166.442 24.2617 155.659 14.7911C144.875 5.32052 130.25 0 115 0C99.7501 0 85.1247 5.32052 74.3414 14.7911C63.558 24.2617 57.5 37.1066 57.5 50.5V63.125H14.375C10.5625 63.125 6.90618 64.4551 4.21034 66.8228C1.51451 69.1904 0 72.4016 0 75.75V214.625C0 224.67 4.54352 234.304 12.631 241.407C20.7185 248.51 31.6875 252.5 43.125 252.5H186.875C198.312 252.5 209.281 248.51 217.369 241.407C225.456 234.304 230 224.67 230 214.625V75.75C230 72.4016 228.486 69.1904 225.79 66.8228C223.094 64.4551 219.437 63.125 215.625 63.125ZM86.25 50.5C86.25 43.8033 89.279 37.3808 94.6707 32.6456C100.062 27.9103 107.375 25.25 115 25.25C122.625 25.25 129.938 27.9103 135.329 32.6456C140.721 37.3808 143.75 43.8033 143.75 50.5V63.125H86.25V50.5ZM201.25 214.625C201.25 217.973 199.736 221.185 197.04 223.552C194.344 225.92 190.687 227.25 186.875 227.25H43.125C39.3125 227.25 35.6562 225.92 32.9603 223.552C30.2645 221.185 28.75 217.973 28.75 214.625V88.375H57.5V101C57.5 104.348 59.0145 107.56 61.7103 109.927C64.4062 112.295 68.0625 113.625 71.875 113.625C75.6875 113.625 79.3438 112.295 82.0397 109.927C84.7355 107.56 86.25 104.348 86.25 101V88.375H143.75V101C143.75 104.348 145.265 107.56 147.96 109.927C150.656 112.295 154.313 113.625 158.125 113.625C161.937 113.625 165.594 112.295 168.29 109.927C170.985 107.56 172.5 104.348 172.5 101V88.375H201.25V214.625Z" fill="black"/>
</svg>
