<?xml version="1.0" encoding="UTF-8"?>
<!--Generator: Apple Native CoreSVG 175.5-->
<!DOCTYPE svg
PUBLIC "-//W3C//DTD SVG 1.1//EN"
       "http://www.w3.org/Graphics/SVG/1.1/DTD/svg11.dtd">
<svg version="1.1" xmlns="http://www.w3.org/2000/svg" xmlns:xlink="http://www.w3.org/1999/xlink" width="26.2988" height="21.2402">
 <g>
  <rect height="21.2402" opacity="0" width="26.2988" x="0" y="0"/>
  <path d="M7.93945 16.1621L19.3359 16.1621C19.7168 16.1621 20.0488 15.8496 20.0488 15.4297C20.0488 15.0098 19.7168 14.6973 19.3359 14.6973L8.10547 14.6973C7.54883 14.6973 7.2168 14.3066 7.11914 13.7109L6.96289 12.6855L19.3555 12.6855C20.3711 12.6855 21.0352 12.2461 21.377 11.4648L21.4551 11.2598C17.8418 11.25 15.0293 8.4668 15.0293 4.96094C15.0293 4.66797 15.0488 4.375 15.0879 4.08203L5.71289 4.08203L5.51758 2.8418C5.41016 2.08984 5.14648 1.70898 4.15039 1.70898L0.722656 1.70898C0.332031 1.70898 0 2.05078 0 2.44141C0 2.8418 0.332031 3.18359 0.722656 3.18359L4.02344 3.18359L5.58594 13.9062C5.79102 15.293 6.52344 16.1621 7.93945 16.1621ZM7.11914 19.3262C7.11914 20.2148 7.82227 20.9082 8.71094 20.9082C9.58984 20.9082 10.293 20.2148 10.293 19.3262C10.293 18.4473 9.58984 17.7441 8.71094 17.7441C7.82227 17.7441 7.11914 18.4473 7.11914 19.3262ZM16.25 19.3262C16.25 20.2148 16.9629 20.9082 17.8418 20.9082C18.7305 20.9082 19.4336 20.2148 19.4336 19.3262C19.4336 18.4473 18.7305 17.7441 17.8418 17.7441C16.9629 17.7441 16.25 18.4473 16.25 19.3262Z" fill="#000000"/>
  <path d="M21.3379 9.92188C24.0234 9.92188 26.2988 7.66602 26.2988 4.96094C26.2988 2.23633 24.0527 0 21.3379 0C18.6133 0 16.377 2.23633 16.377 4.96094C16.377 7.68555 18.6133 9.92188 21.3379 9.92188Z" fill="#32d74b"/>
  <path d="M21.3379 8.06641C20.9766 8.06641 20.7324 7.82227 20.7324 7.4707L20.7324 5.55664L18.8281 5.55664C18.4668 5.55664 18.2324 5.32227 18.2324 4.96094C18.2324 4.59961 18.4668 4.36523 18.8281 4.36523L20.7324 4.36523L20.7324 2.45117C20.7324 2.09961 20.9766 1.85547 21.3379 1.85547C21.6992 1.85547 21.9336 2.09961 21.9336 2.45117L21.9336 4.36523L23.8379 4.36523C24.1992 4.36523 24.4434 4.59961 24.4434 4.96094C24.4434 5.32227 24.1992 5.55664 23.8379 5.55664L21.9336 5.55664L21.9336 7.4707C21.9336 7.82227 21.6992 8.06641 21.3379 8.06641Z" fill="#ffffff"/>
 </g>
</svg>
