<svg width="73" height="73" viewBox="0 0 73 73" fill="none" xmlns="http://www.w3.org/2000/svg">
<path d="M0 3.125C0 2.2962 0.32924 1.50134 0.915291 0.915291C1.50134 0.32924 2.2962 0 3.125 0H5.45C9.40833 0 11.7833 2.6625 13.1375 5.1375C14.0417 6.7875 14.6958 8.7 15.2083 10.4333C15.347 10.4224 15.4859 10.4168 15.625 10.4167H67.7C71.1583 10.4167 73.6583 13.725 72.7083 17.0542L65.0917 43.7583C64.4088 46.1536 62.964 48.2611 60.9762 49.7617C58.9883 51.2624 56.5657 52.0744 54.075 52.075H29.2917C26.7812 52.0751 24.3402 51.2507 22.3439 49.7286C20.3475 48.2065 18.9062 46.0709 18.2417 43.65L15.075 32.1L9.825 14.4L9.82083 14.3667C9.17083 12.0042 8.5625 9.79167 7.65417 8.14167C6.78333 6.5375 6.08333 6.25 5.45417 6.25H3.125C2.2962 6.25 1.50134 5.92076 0.915291 5.33471C0.32924 4.74866 0 3.9538 0 3.125ZM27.0833 72.9167C29.2935 72.9167 31.4131 72.0387 32.9759 70.4759C34.5387 68.9131 35.4167 66.7935 35.4167 64.5833C35.4167 62.3732 34.5387 60.2536 32.9759 58.6908C31.4131 57.128 29.2935 56.25 27.0833 56.25C24.8732 56.25 22.7536 57.128 21.1908 58.6908C19.628 60.2536 18.75 62.3732 18.75 64.5833C18.75 66.7935 19.628 68.9131 21.1908 70.4759C22.7536 72.0387 24.8732 72.9167 27.0833 72.9167ZM56.25 72.9167C58.4601 72.9167 60.5797 72.0387 62.1426 70.4759C63.7054 68.9131 64.5833 66.7935 64.5833 64.5833C64.5833 62.3732 63.7054 60.2536 62.1426 58.6908C60.5797 57.128 58.4601 56.25 56.25 56.25C54.0399 56.25 51.9202 57.128 50.3574 58.6908C48.7946 60.2536 47.9167 62.3732 47.9167 64.5833C47.9167 66.7935 48.7946 68.9131 50.3574 70.4759C51.9202 72.0387 54.0399 72.9167 56.25 72.9167Z" fill="black"/>
</svg>
