<svg width="100" height="100" viewBox="0 0 100 100" fill="none" xmlns="http://www.w3.org/2000/svg">
<g id="fluent:grid-28-filled">
<path id="Vector" d="M38.3929 53.5715C40.5241 53.5715 42.568 54.4181 44.075 55.9251C45.582 57.4321 46.4286 59.476 46.4286 61.6072V81.2501C46.4286 83.3813 45.582 85.4252 44.075 86.9322C42.568 88.4392 40.5241 89.2858 38.3929 89.2858H18.7501C16.6189 89.2858 14.575 88.4392 13.068 86.9322C11.561 85.4252 10.7144 83.3813 10.7144 81.2501V61.6072C10.7144 59.476 11.561 57.4321 13.068 55.9251C14.575 54.4181 16.6189 53.5715 18.7501 53.5715H38.3929ZM81.2501 53.5715C83.3813 53.5715 85.4252 54.4181 86.9322 55.9251C88.4392 57.4321 89.2858 59.476 89.2858 61.6072V81.2501C89.2858 83.3813 88.4392 85.4252 86.9322 86.9322C85.4252 88.4392 83.3813 89.2858 81.2501 89.2858H61.6072C59.476 89.2858 57.4321 88.4392 55.9251 86.9322C54.4181 85.4252 53.5715 83.3813 53.5715 81.2501V61.6072C53.5715 59.476 54.4181 57.4321 55.9251 55.9251C57.4321 54.4181 59.476 53.5715 61.6072 53.5715H81.2501ZM38.3929 10.7144C40.5241 10.7144 42.568 11.561 44.075 13.068C45.582 14.575 46.4286 16.6189 46.4286 18.7501V38.3929C46.4286 40.5241 45.582 42.568 44.075 44.075C42.568 45.582 40.5241 46.4286 38.3929 46.4286H18.7501C16.6189 46.4286 14.575 45.582 13.068 44.075C11.561 42.568 10.7144 40.5241 10.7144 38.3929V18.7501C10.7144 16.6189 11.561 14.575 13.068 13.068C14.575 11.561 16.6189 10.7144 18.7501 10.7144H38.3929ZM81.2501 10.7144C83.3813 10.7144 85.4252 11.561 86.9322 13.068C88.4392 14.575 89.2858 16.6189 89.2858 18.7501V38.3929C89.2858 40.5241 88.4392 42.568 86.9322 44.075C85.4252 45.582 83.3813 46.4286 81.2501 46.4286H61.6072C59.476 46.4286 57.4321 45.582 55.9251 44.075C54.4181 42.568 53.5715 40.5241 53.5715 38.3929V18.7501C53.5715 16.6189 54.4181 14.575 55.9251 13.068C57.4321 11.561 59.476 10.7144 61.6072 10.7144H81.2501Z" fill="#7E8794"/>
</g>
</svg>
