<svg width="100" height="100" viewBox="0 0 100 100" fill="none" xmlns="http://www.w3.org/2000/svg">
<g id="ion:list">
<path id="Vector" d="M31.25 28.125H87.5M31.25 50H87.5M31.25 71.875H87.5" stroke="#7E8794" stroke-width="9.375" stroke-linecap="round" stroke-linejoin="round"/>
<path id="Vector_2" d="M15.625 31.25C17.3509 31.25 18.75 29.8509 18.75 28.125C18.75 26.3991 17.3509 25 15.625 25C13.8991 25 12.5 26.3991 12.5 28.125C12.5 29.8509 13.8991 31.25 15.625 31.25Z" stroke="#7E8794" stroke-width="6.25" stroke-linecap="round" stroke-linejoin="round"/>
<path id="Vector_3" d="M15.625 53.125C17.3509 53.125 18.75 51.7259 18.75 50C18.75 48.2741 17.3509 46.875 15.625 46.875C13.8991 46.875 12.5 48.2741 12.5 50C12.5 51.7259 13.8991 53.125 15.625 53.125Z" stroke="#7E8794" stroke-width="6.25" stroke-linecap="round" stroke-linejoin="round"/>
<path id="Vector_4" d="M15.625 75C17.3509 75 18.75 73.6009 18.75 71.875C18.75 70.1491 17.3509 68.75 15.625 68.75C13.8991 68.75 12.5 70.1491 12.5 71.875C12.5 73.6009 13.8991 75 15.625 75Z" stroke="#7E8794" stroke-width="6.25" stroke-linecap="round" stroke-linejoin="round"/>
</g>
</svg>
