<?xml version="1.0" encoding="UTF-8"?>
<!--Generator: Apple Native CoreSVG 175.5-->
<!DOCTYPE svg
PUBLIC "-//W3C//DTD SVG 1.1//EN"
       "http://www.w3.org/Graphics/SVG/1.1/DTD/svg11.dtd">
<svg version="1.1" xmlns="http://www.w3.org/2000/svg" xmlns:xlink="http://www.w3.org/1999/xlink" width="19.9219" height="19.9316">
 <g>
  <rect height="19.9316" opacity="0" width="19.9219" x="0" y="0"/>
  <path d="M9.96094 19.9219C15.4102 19.9219 19.9219 15.4004 19.9219 9.96094C19.9219 4.51172 15.4004 0 9.95117 0C4.51172 0 0 4.51172 0 9.96094C0 15.4004 4.52148 19.9219 9.96094 19.9219ZM9.96094 18.2617C5.35156 18.2617 1.66992 14.5703 1.66992 9.96094C1.66992 5.35156 5.3418 1.66016 9.95117 1.66016C14.5605 1.66016 18.2617 5.35156 18.2617 9.96094C18.2617 14.5703 14.5703 18.2617 9.96094 18.2617Z" fill="#32d74b" fill-opacity="0.5"/>
  <path d="M5.75195 9.77539C5.75195 10.0391 5.9668 10.2637 6.23047 10.2637L6.82617 10.2637L7.46094 14.209C7.51953 14.5898 7.80273 14.8047 8.1543 14.8047C8.50586 14.8047 8.78906 14.6094 8.85742 14.2188L9.51172 10.2539L10.3906 10.2539L11.0645 14.2188C11.1328 14.6094 11.416 14.8047 11.7676 14.8047C12.1094 14.8047 12.4023 14.5898 12.4609 14.209L13.0762 10.2539L13.6621 10.2539C13.9355 10.2539 14.1406 10.0293 14.1406 9.76562C14.1406 9.48242 13.9355 9.28711 13.6621 9.28711L13.2324 9.28711L13.7109 6.20117C13.7305 6.10352 13.75 6.02539 13.75 5.91797C13.75 5.57617 13.4863 5.37109 13.1445 5.37109C12.8418 5.37109 12.5781 5.54688 12.5293 5.88867L12.0898 9.28711L11.2402 9.28711L10.6738 6.00586C10.6152 5.60547 10.293 5.38086 9.94141 5.38086C9.57031 5.38086 9.27734 5.60547 9.20898 6.01562L8.65234 9.29688L7.82227 9.29688L7.40234 5.89844C7.35352 5.55664 7.08984 5.38086 6.77734 5.38086C6.42578 5.38086 6.15234 5.5957 6.15234 5.9375C6.15234 6.05469 6.18164 6.15234 6.19141 6.24023L6.66992 9.29688L6.23047 9.29688C5.9668 9.29688 5.75195 9.49219 5.75195 9.77539ZM7.94922 10.2441L8.51562 10.2441L8.18359 12.5391ZM9.6875 9.29688L9.95117 7.38281L10.2344 9.29688ZM11.377 10.2441L11.9922 10.2441L11.7285 12.5977Z" fill="#32d74b"/>
 </g>
</svg>
