<?xml version="1.0" encoding="UTF-8"?>
<!--Generator: Apple Native CoreSVG 175.5-->
<!DOCTYPE svg
PUBLIC "-//W3C//DTD SVG 1.1//EN"
       "http://www.w3.org/Graphics/SVG/1.1/DTD/svg11.dtd">
<svg version="1.1" xmlns="http://www.w3.org/2000/svg" xmlns:xlink="http://www.w3.org/1999/xlink" width="21.709" height="18.0371">
 <g>
  <rect height="18.0371" opacity="0" width="21.709" x="0" y="0"/>
  <path d="M5.83984 17.7734C6.47461 17.7734 6.94336 17.3828 7.09961 16.7773L10.8008 3.21289L10.8984 3.21289L14.5996 16.7773C14.7461 17.3828 15.2246 17.7734 15.8496 17.7734C16.5039 17.7734 17.0117 17.373 17.1387 16.7383L20.3125 1.36719C20.3418 1.19141 20.3711 1.02539 20.3711 0.849609C20.3711 0.322266 19.9512 0 19.4238 0C18.9453 0 18.584 0.292969 18.4961 0.771484L15.8008 15.2051L15.7227 15.2051L11.8457 0.849609C11.7188 0.351562 11.416 0.0390625 10.8594 0.0390625C10.293 0.0390625 9.98047 0.380859 9.84375 0.888672L5.97656 15.2051L5.89844 15.2051L3.20312 0.771484C3.11523 0.302734 2.75391 0 2.26562 0C1.73828 0 1.32812 0.322266 1.32812 0.849609C1.32812 1.01562 1.34766 1.18164 1.37695 1.35742L4.56055 16.7383C4.6875 17.373 5.18555 17.7734 5.83984 17.7734ZM0.625 9.43359L21.0742 9.43359C21.4355 9.43359 21.709 9.15039 21.709 8.78906C21.709 8.41797 21.4355 8.1543 21.0742 8.1543L0.625 8.1543C0.273438 8.1543 0 8.41797 0 8.78906C0 9.15039 0.273438 9.43359 0.625 9.43359Z" fill="#ffffff" fill-opacity="0.85"/>
 </g>
</svg>
