<svg width="45" height="45" viewBox="0 0 45 45" fill="none" xmlns="http://www.w3.org/2000/svg">
<g id="closeWhite">
<path id="Vector" d="M34.3127 10.7062C34.1392 10.5324 33.9332 10.3945 33.7063 10.3004C33.4795 10.2063 33.2364 10.1578 32.9908 10.1578C32.7452 10.1578 32.5021 10.2063 32.2753 10.3004C32.0484 10.3945 31.8424 10.5324 31.6689 10.7062L22.5002 19.8562L13.3314 10.6874C13.1578 10.5138 12.9518 10.3761 12.7249 10.2822C12.4981 10.1882 12.255 10.1399 12.0096 10.1399C11.7641 10.1399 11.521 10.1882 11.2942 10.2822C11.0673 10.3761 10.8613 10.5138 10.6877 10.6874C10.5141 10.861 10.3764 11.0671 10.2824 11.2939C10.1885 11.5207 10.1401 11.7638 10.1401 12.0093C10.1401 12.2548 10.1885 12.4979 10.2824 12.7247C10.3764 12.9515 10.5141 13.1576 10.6877 13.3312L19.8564 22.4999L10.6877 31.6687C10.5141 31.8423 10.3764 32.0484 10.2824 32.2752C10.1885 32.502 10.1401 32.7451 10.1401 32.9906C10.1401 33.236 10.1885 33.4791 10.2824 33.7059C10.3764 33.9328 10.5141 34.1388 10.6877 34.3124C10.8613 34.486 11.0673 34.6237 11.2942 34.7177C11.521 34.8116 11.7641 34.86 12.0096 34.86C12.255 34.86 12.4981 34.8116 12.7249 34.7177C12.9518 34.6237 13.1578 34.486 13.3314 34.3124L22.5002 25.1437L31.6689 34.3124C31.8425 34.486 32.0486 34.6237 32.2754 34.7177C32.5022 34.8116 32.7453 34.86 32.9908 34.86C33.2363 34.86 33.4794 34.8116 33.7062 34.7177C33.933 34.6237 34.1391 34.486 34.3127 34.3124C34.4863 34.1388 34.624 33.9328 34.7179 33.7059C34.8119 33.4791 34.8602 33.236 34.8602 32.9906C34.8602 32.7451 34.8119 32.502 34.7179 32.2752C34.624 32.0484 34.4863 31.8423 34.3127 31.6687L25.1439 22.4999L34.3127 13.3312C35.0252 12.6187 35.0252 11.4187 34.3127 10.7062Z" fill="white"/>
</g>
</svg>
