<svg width="50" height="50" viewBox="0 0 50 50" fill="none" xmlns="http://www.w3.org/2000/svg">
<g id="Vector">
<path id="Vector_2" d="M47.1195 22.5943H47.1158L46.9718 22.7284L37.3039 31.7339L37.096 31.9276L37.156 32.2053L40.0521 45.6128L40.0523 45.6141C40.186 46.2251 40.1477 46.8647 39.943 47.4516C39.7383 48.0383 39.3779 48.5427 38.9116 48.9047C38.4456 49.2664 37.894 49.4708 37.3259 49.4971C36.758 49.5233 36.1931 49.3706 35.7012 49.0543C35.7011 49.0543 35.7009 49.0542 35.7008 49.0541L24.7458 41.9622L24.4738 41.7861L24.2019 41.9624L13.2709 49.0541C13.2705 49.0544 13.2701 49.0546 13.2696 49.0549C12.778 49.3708 12.2134 49.5233 11.6458 49.4971C11.0777 49.4708 10.5261 49.2664 10.0602 48.9047C9.5938 48.5427 9.23338 48.0383 9.02876 47.4516C8.82408 46.8647 8.78578 46.2251 8.91938 45.6141L8.91966 45.6128L11.8115 32.219L11.8714 31.9415L11.6638 31.7478L1.99371 22.7286L1.9913 22.7264C1.55266 22.3227 1.23163 21.7858 1.07322 21.181C0.914781 20.5761 0.927268 19.9343 1.10887 19.3372C1.29043 18.7404 1.63164 18.2188 2.08489 17.8353C2.53773 17.4521 3.08252 17.2232 3.65021 17.1723L3.65157 17.1721L16.3978 15.9938L16.7045 15.9655L16.8171 15.6788L21.7926 3.01255L21.7929 3.01179C22.0186 2.43441 22.3973 1.94637 22.8765 1.60556C23.3553 1.26506 23.9141 1.08569 24.4827 1.08569C25.0512 1.08569 25.61 1.26506 26.0888 1.60556C26.568 1.94637 26.9467 2.43441 27.1724 3.01179L27.1729 3.01302L32.1634 15.6792L32.2761 15.9655L32.5825 15.9938L45.3244 17.1721L45.3258 17.1723C45.8935 17.2232 46.4383 17.4521 46.8911 17.8353C47.3444 18.2188 47.6856 18.7404 47.8671 19.3372C48.0488 19.9343 48.0612 20.5761 47.9028 21.181C47.7611 21.7221 47.4893 22.2087 47.1195 22.5943Z" fill="#B4B4B4" stroke="white"/>
</g>
</svg>
