<svg width="50" height="50" viewBox="0 0 50 50" fill="none" xmlns="http://www.w3.org/2000/svg">
<g id="Vector">
<path id="Vector_2" d="M47.8244 23.0943L38.1564 32.0998L41.0525 45.5073C41.2058 46.2082 41.1621 46.9417 40.9268 47.6163C40.6916 48.2908 40.2752 48.8763 39.7299 49.2997C39.1846 49.7231 38.5344 49.9654 37.8607 49.9966C37.187 50.0277 36.5196 49.8461 35.942 49.4746L24.9858 42.3819L14.0531 49.4746C13.4756 49.8461 12.8082 50.0277 12.1345 49.9966C11.4608 49.9654 10.8106 49.7231 10.2653 49.2997C9.71992 48.8763 9.30361 48.2908 9.06836 47.6163C8.83312 46.9417 8.78939 46.2082 8.94264 45.5073L11.8344 32.1135L2.16439 23.0943C1.65293 22.6235 1.28309 22.002 1.10125 21.3077C0.919414 20.6135 0.93367 19.8774 1.14223 19.1917C1.35079 18.5061 1.74438 17.9014 2.27363 17.4536C2.80287 17.0057 3.44423 16.7346 4.11726 16.6743L16.8635 15.4959L21.8389 2.82974C22.0987 2.16512 22.537 1.59741 23.0985 1.19809C23.66 0.798768 24.3196 0.585693 24.9944 0.585693C25.6691 0.585693 26.3288 0.798768 26.8903 1.19809C27.4518 1.59741 27.89 2.16512 28.1498 2.82974L33.1403 15.4959L45.8822 16.6743C46.5552 16.7346 47.1966 17.0057 47.7258 17.4536C48.2551 17.9014 48.6487 18.5061 48.8572 19.1917C49.0658 19.8774 49.08 20.6135 48.8982 21.3077C48.7164 22.002 48.3465 22.6235 47.8351 23.0943H47.8244Z" fill="#FFC700"/>
</g>
</svg>
