<svg width="45" height="45" viewBox="0 0 45 45" fill="none" xmlns="http://www.w3.org/2000/svg">
<g id="&#236;&#158;&#165;&#235;&#176;&#148;&#234;&#181;&#172;&#235;&#139;&#136; &#236;&#149;&#132;&#236;&#157;&#180;&#236;&#189;&#152;">
<path id="Vector" d="M10.3125 39.375C8.85 39.375 7.575 38.5313 6.95625 37.3125L2.0625 19.575L1.875 18.75C1.875 18.2527 2.07254 17.7758 2.42417 17.4242C2.77581 17.0726 3.25272 16.875 3.75 16.875H12.3375L20.9625 4.55627C21.1354 4.30479 21.3672 4.09945 21.6377 3.95819C21.9082 3.81692 22.2092 3.74403 22.5143 3.74588C22.8195 3.74773 23.1196 3.82426 23.3884 3.9688C23.6571 4.11333 23.8864 4.32146 24.0563 4.57502L32.6625 16.875H41.25C41.7473 16.875 42.2242 17.0726 42.5758 17.4242C42.9275 17.7758 43.125 18.2527 43.125 18.75L43.05 19.2938L38.0438 37.3125C37.425 38.5313 36.15 39.375 34.6875 39.375H10.3125ZM22.5 8.88752L16.875 16.875H28.125L22.5 8.88752ZM22.5 24.375C21.5054 24.375 20.5516 24.7701 19.8484 25.4734C19.1451 26.1766 18.75 27.1305 18.75 28.125C18.75 29.1196 19.1451 30.0734 19.8484 30.7767C20.5516 31.4799 21.5054 31.875 22.5 31.875C23.4946 31.875 24.4484 31.4799 25.1517 30.7767C25.8549 30.0734 26.25 29.1196 26.25 28.125C26.25 27.1305 25.8549 26.1766 25.1517 25.4734C24.4484 24.7701 23.4946 24.375 22.5 24.375Z" fill="#2B2A4C"/>
</g>
</svg>
