<svg width="45" height="45" viewBox="0 0 45 45" fill="none" xmlns="http://www.w3.org/2000/svg">
<g id="&#235;&#172;&#184;&#236;&#157;&#152;&#237;&#149;&#152;&#234;&#184;&#176; &#236;&#149;&#132;&#236;&#157;&#180;&#236;&#189;&#152;">
<path id="Vector" d="M22.4062 33.75C23.0625 33.75 23.6175 33.5231 24.0713 33.0694C24.525 32.6156 24.7512 32.0613 24.75 31.4062C24.75 30.75 24.5238 30.195 24.0713 29.7413C23.6187 29.2875 23.0637 29.0613 22.4062 29.0625C21.75 29.0625 21.1956 29.2894 20.7431 29.7431C20.2906 30.1969 20.0637 30.7512 20.0625 31.4062C20.0625 32.0625 20.2894 32.6175 20.7431 33.0713C21.1969 33.525 21.7512 33.7512 22.4062 33.75ZM20.7188 26.5312H24.1875C24.1875 25.5 24.305 24.6875 24.54 24.0938C24.775 23.5 25.4387 22.6875 26.5312 21.6562C27.3438 20.8438 27.9844 20.07 28.4531 19.335C28.9219 18.6 29.1562 17.7175 29.1562 16.6875C29.1562 14.9375 28.5156 13.5938 27.2344 12.6562C25.9531 11.7188 24.4375 11.25 22.6875 11.25C20.9062 11.25 19.4606 11.7188 18.3506 12.6562C17.2406 13.5938 16.4675 14.7188 16.0312 16.0312L19.125 17.25C19.2812 16.6875 19.6331 16.0781 20.1806 15.4219C20.7281 14.7656 21.5638 14.4375 22.6875 14.4375C23.6875 14.4375 24.4375 14.7112 24.9375 15.2587C25.4375 15.8062 25.6875 16.4075 25.6875 17.0625C25.6875 17.6875 25.5 18.2738 25.125 18.8212C24.75 19.3688 24.2812 19.8763 23.7188 20.3438C22.3438 21.5625 21.5 22.4844 21.1875 23.1094C20.875 23.7344 20.7188 24.875 20.7188 26.5312ZM22.5 41.25C19.9062 41.25 17.4688 40.7575 15.1875 39.7725C12.9063 38.7875 10.9219 37.4519 9.23438 35.7656C7.54688 34.0781 6.21125 32.0938 5.2275 29.8125C4.24375 27.5312 3.75125 25.0938 3.75 22.5C3.75 19.9062 4.2425 17.4688 5.2275 15.1875C6.2125 12.9063 7.54813 10.9219 9.23438 9.23438C10.9219 7.54688 12.9063 6.21125 15.1875 5.2275C17.4688 4.24375 19.9062 3.75125 22.5 3.75C25.0938 3.75 27.5312 4.2425 29.8125 5.2275C32.0938 6.2125 34.0781 7.54813 35.7656 9.23438C37.4531 10.9219 38.7894 12.9063 39.7744 15.1875C40.7594 17.4688 41.2513 19.9062 41.25 22.5C41.25 25.0938 40.7575 27.5312 39.7725 29.8125C38.7875 32.0938 37.4519 34.0781 35.7656 35.7656C34.0781 37.4531 32.0938 38.7894 29.8125 39.7744C27.5312 40.7594 25.0938 41.2513 22.5 41.25ZM22.5 37.5C26.6875 37.5 30.2344 36.0469 33.1406 33.1406C36.0469 30.2344 37.5 26.6875 37.5 22.5C37.5 18.3125 36.0469 14.7656 33.1406 11.8594C30.2344 8.95312 26.6875 7.5 22.5 7.5C18.3125 7.5 14.7656 8.95312 11.8594 11.8594C8.95312 14.7656 7.5 18.3125 7.5 22.5C7.5 26.6875 8.95312 30.2344 11.8594 33.1406C14.7656 36.0469 18.3125 37.5 22.5 37.5Z" fill="#2B2A4C"/>
</g>
</svg>
