<svg width="45" height="45" viewBox="0 0 45 45" fill="none" xmlns="http://www.w3.org/2000/svg">
<g id="&#235;&#161;&#156;&#234;&#183;&#184;&#236;&#149;&#132;&#236;&#155;&#131; &#236;&#149;&#132;&#236;&#157;&#180;&#236;&#189;&#152;" clip-path="url(#clip0_61_811)">
<path id="Vector" fill-rule="evenodd" clip-rule="evenodd" d="M11.9409 3.75C10.2658 3.75 8.65933 4.38214 7.47487 5.50736C6.29042 6.63258 5.625 8.1587 5.625 9.75V37.75C5.625 39.3413 6.29042 40.8674 7.47487 41.9926C8.65933 43.1179 10.2658 43.75 11.9409 43.75H24.5726C26.2477 43.75 27.8541 43.1179 29.0386 41.9926C30.223 40.8674 30.8884 39.3413 30.8884 37.75V9.75C30.8884 8.1587 30.223 6.63258 29.0386 5.50736C27.8541 4.38214 26.2477 3.75 24.5726 3.75H11.9409ZM33.6106 14.336C34.0054 13.9611 34.5408 13.7504 35.099 13.7504C35.6573 13.7504 36.1927 13.9611 36.5875 14.336L45.0086 22.336C45.4033 22.7111 45.625 23.2197 45.625 23.75C45.625 24.2803 45.4033 24.7889 45.0086 25.164L36.5875 33.164C36.1904 33.5283 35.6586 33.7299 35.1066 33.7253C34.5546 33.7208 34.0266 33.5105 33.6362 33.1396C33.2459 32.7688 33.0245 32.2672 33.0197 31.7428C33.0149 31.2184 33.2271 30.7132 33.6106 30.336L38.438 25.75H20.362C19.8037 25.75 19.2682 25.5393 18.8733 25.1642C18.4785 24.7891 18.2567 24.2804 18.2567 23.75C18.2567 23.2196 18.4785 22.7109 18.8733 22.3358C19.2682 21.9607 19.8037 21.75 20.362 21.75H38.438L33.6106 17.164C33.2159 16.7889 32.9942 16.2803 32.9942 15.75C32.9942 15.2197 33.2159 14.7111 33.6106 14.336Z" fill="#2B2A4C"/>
</g>
<defs>
<clipPath id="clip0_61_811">
<rect width="45" height="45" fill="white"/>
</clipPath>
</defs>
</svg>
