<svg width="100" height="100" viewBox="0 0 100 100" fill="none" xmlns="http://www.w3.org/2000/svg">
<g id="ic:round-attach-money">
<path id="Vector" d="M49.1666 45.4167C39.7083 42.9583 36.6666 40.4167 36.6666 36.4583C36.6666 31.9167 40.875 28.75 47.9166 28.75C53.8333 28.75 56.7916 31 57.875 34.5833C58.375 36.25 59.75 37.5 61.5 37.5H62.75C65.5 37.5 67.4583 34.7917 66.5 32.2083C64.75 27.2917 60.6666 23.2083 54.1666 21.625V18.75C54.1666 15.2917 51.375 12.5 47.9166 12.5C44.4583 12.5 41.6666 15.2917 41.6666 18.75V21.5C33.5833 23.25 27.0833 28.5 27.0833 36.5417C27.0833 46.1667 35.0416 50.9583 46.6666 53.75C57.0833 56.25 59.1666 59.9167 59.1666 63.7917C59.1666 66.6667 57.125 71.25 47.9166 71.25C41.0416 71.25 37.5 68.7917 36.125 65.2917C35.5 63.6667 34.0833 62.5 32.375 62.5H31.2083C28.4166 62.5 26.4583 65.3333 27.5 67.9167C29.875 73.7083 35.4166 77.125 41.6666 78.4583V81.25C41.6666 84.7083 44.4583 87.5 47.9166 87.5C51.375 87.5 54.1666 84.7083 54.1666 81.25V78.5417C62.2916 77 68.75 72.2917 68.75 63.75C68.75 51.9167 58.625 47.875 49.1666 45.4167Z" fill="white"/>
</g>
</svg>
