<svg width="45" height="45" viewBox="0 0 45 45" fill="none" xmlns="http://www.w3.org/2000/svg">
<g id="bx:purchase-tag">
<path id="Vector" d="M25.7006 6.17438C25.5268 5.99992 25.3202 5.86157 25.0927 5.76729C24.8652 5.673 24.6213 5.62464 24.375 5.625H7.5C7.00272 5.625 6.52581 5.82255 6.17417 6.17418C5.82254 6.52581 5.625 7.00272 5.625 7.5V24.375C5.625 24.8738 5.82187 25.35 6.17437 25.7006L21.1744 40.7006C21.3481 40.8754 21.5547 41.014 21.7822 41.1086C22.0097 41.2032 22.2536 41.2519 22.5 41.2519C22.7464 41.2519 22.9903 41.2032 23.2178 41.1086C23.4453 41.014 23.6519 40.8754 23.8256 40.7006L40.7006 23.8256C40.8749 23.6516 41.0132 23.445 41.1075 23.2176C41.2018 22.9901 41.2504 22.7463 41.2504 22.5C41.2504 22.2538 41.2018 22.0099 41.1075 21.7825C41.0132 21.555 40.8749 21.3484 40.7006 21.1744L25.7006 6.17438ZM22.5 36.7238L9.375 23.5988V9.375H23.5987L36.7237 22.5L22.5 36.7238Z" fill="white"/>
<path id="Vector_2" d="M15.93 18.75C17.4885 18.75 18.7519 17.4866 18.7519 15.9281C18.7519 14.3696 17.4885 13.1062 15.93 13.1062C14.3715 13.1062 13.1081 14.3696 13.1081 15.9281C13.1081 17.4866 14.3715 18.75 15.93 18.75Z" fill="white"/>
</g>
</svg>
