<svg width="36" height="46" viewBox="0 0 36 46" fill="none" xmlns="http://www.w3.org/2000/svg">
<g id="&#234;&#181;&#172;&#235;&#143;&#133; &#236;&#149;&#132;&#236;&#157;&#180;&#236;&#189;&#152;" clip-path="url(#clip0_504_2765)">
<path id="Vector" d="M34.1897 29.7313C32.8184 28.2248 31.4146 26.6647 31.4146 19.3047C31.4105 15.7559 30.2826 12.3233 28.2309 9.61581C26.1792 6.90829 23.3363 5.10076 20.2063 4.51375L20.1275 4.50225C20.3924 4.07003 20.5467 3.56505 20.5736 3.04189C20.6005 2.51874 20.4991 1.9973 20.2802 1.53395C20.0613 1.07059 19.7334 0.682939 19.3318 0.412886C18.9302 0.142834 18.4702 0.000654533 18.0016 0.00171487C17.5329 0.00277521 17.0735 0.147035 16.6729 0.418903C16.2722 0.69077 15.9457 1.0799 15.7285 1.54425C15.5113 2.00859 15.4117 2.53048 15.4405 3.05351C15.4694 3.57654 15.6255 4.08081 15.892 4.51183L15.8868 4.50225C9.45395 5.69633 4.60999 11.868 4.60142 19.3047V19.3066C4.60142 26.6666 3.19246 28.2287 1.82634 29.7332C1.00731 30.5404 0.42755 31.6073 0.164236 32.7919C-0.0990783 33.9766 -0.0334537 35.2229 0.352374 36.3649C0.738201 37.5068 1.42593 38.4903 2.32401 39.1843C3.22209 39.8784 4.28791 40.2501 5.37961 40.25H12.8649C12.8649 41.775 13.4067 43.2375 14.3711 44.3159C15.3354 45.3942 16.6434 46 18.0071 46C19.3709 46 20.6789 45.3942 21.6432 44.3159C22.6076 43.2375 23.1494 41.775 23.1494 40.25H30.6398C31.7308 40.2499 32.7959 39.8786 33.6936 39.1852C34.5912 38.4919 35.2789 37.5095 35.6651 36.3686C36.0514 35.2277 36.1179 33.9823 35.8559 32.7981C35.5939 31.6139 35.0157 30.5469 34.1982 29.739L34.1931 29.7332L34.1897 29.7313ZM18.0071 42.4062C17.496 42.4052 17.0061 42.1777 16.6446 41.7736C16.2832 41.3694 16.0797 40.8216 16.0788 40.25H19.9372C19.9363 40.8219 19.7326 41.37 19.3708 41.7742C19.009 42.1785 18.5186 42.4057 18.0071 42.4062ZM30.6227 35.9356H5.38132C5.0824 35.9337 4.79063 35.8332 4.54255 35.6468C4.29447 35.4603 4.10113 35.1961 3.98674 34.8873C3.87236 34.5784 3.84202 34.2387 3.89953 33.9107C3.95704 33.5827 4.09983 33.281 4.31003 33.0433C6.60688 30.475 8.45465 28.037 8.45465 19.3008C8.45465 16.4684 9.46089 13.752 11.252 11.7492C13.0431 9.74634 15.4724 8.62116 18.0054 8.62116C20.5385 8.62116 22.9677 9.74634 24.7589 11.7492C26.55 13.752 27.5562 16.4684 27.5562 19.3008C27.5562 28.0753 29.4228 30.4942 31.7008 33.0433C31.911 33.281 32.0538 33.5827 32.1113 33.9107C32.1688 34.2387 32.1385 34.5784 32.0241 34.8873C31.9097 35.1961 31.7164 35.4603 31.4683 35.6468C31.2202 35.8332 30.9285 35.9337 30.6295 35.9356H30.6227Z" fill="white"/>
</g>
<defs>
<clipPath id="clip0_504_2765">
<rect width="36" height="46" fill="white"/>
</clipPath>
</defs>
</svg>
