<svg width="36" height="46" viewBox="0 0 36 46" fill="none" xmlns="http://www.w3.org/2000/svg">
<g id="&#234;&#181;&#172;&#235;&#143;&#133; &#236;&#149;&#132;&#236;&#157;&#180;&#236;&#189;&#152;" clip-path="url(#clip0_61_809)">
<path id="Vector" d="M34.1897 29.7313C32.8184 28.2248 31.4146 26.6647 31.4146 19.3047C31.4105 15.7559 30.2826 12.3233 28.2309 9.61581C26.1792 6.9083 23.3363 5.10076 20.2063 4.51375L20.1275 4.50225C20.3924 4.07003 20.5467 3.56505 20.5737 3.04189C20.6006 2.51874 20.4991 1.9973 20.2803 1.53395C20.0614 1.07059 19.7334 0.682939 19.3318 0.412886C18.9302 0.142834 18.4702 0.000654533 18.0016 0.00171487C17.533 0.00277521 17.0735 0.147035 16.6729 0.418903C16.2723 0.69077 15.9457 1.0799 15.7285 1.54425C15.5113 2.00859 15.4117 2.53048 15.4406 3.05351C15.4694 3.57654 15.6255 4.08081 15.892 4.51183L15.8869 4.50225C9.45398 5.69633 4.61002 11.868 4.60145 19.3047V19.3066C4.60145 26.6666 3.19249 28.2287 1.82637 29.7332C1.00734 30.5403 0.42758 31.6073 0.164266 32.792C-0.0990478 33.9766 -0.0334232 35.2229 0.352404 36.3649C0.738231 37.5068 1.42596 38.4903 2.32404 39.1843C3.22212 39.8784 4.28794 40.2501 5.37964 40.25H12.865C12.865 41.775 13.4067 43.2375 14.3711 44.3159C15.3354 45.3942 16.6434 46 18.0072 46C19.371 46 20.6789 45.3942 21.6433 44.3159C22.6076 43.2375 23.1494 41.775 23.1494 40.25H30.6399C31.7308 40.2499 32.796 39.8786 33.6936 39.1852C34.5913 38.4919 35.2789 37.5095 35.6652 36.3686C36.0514 35.2277 36.1179 33.9823 35.8559 32.7981C35.5939 31.6139 35.0157 30.5469 34.1983 29.739L34.1931 29.7332L34.1897 29.7313ZM18.0072 42.4062C17.496 42.4052 17.0061 42.1777 16.6446 41.7736C16.2832 41.3694 16.0798 40.8216 16.0789 40.25H19.9372C19.9363 40.8219 19.7326 41.37 19.3708 41.7743C19.009 42.1785 18.5186 42.4057 18.0072 42.4062ZM30.6227 35.9356H5.38135C5.08243 35.9337 4.79066 35.8332 4.54258 35.6468C4.2945 35.4603 4.10116 35.1961 3.98677 34.8873C3.87239 34.5784 3.84205 34.2387 3.89956 33.9107C3.95707 33.5827 4.09986 33.281 4.31006 33.0433C6.60691 30.475 8.45468 28.037 8.45468 19.3008C8.45468 16.4684 9.46092 13.752 11.252 11.7492C13.0432 9.74634 15.4724 8.62116 18.0055 8.62116C20.5385 8.62116 22.9678 9.74634 24.7589 11.7492C26.55 13.752 27.5563 16.4684 27.5563 19.3008C27.5563 28.0753 29.4229 30.4942 31.7009 33.0433C31.9111 33.281 32.0539 33.5827 32.1114 33.9107C32.1689 34.2387 32.1385 34.5784 32.0242 34.8873C31.9098 35.1961 31.7164 35.4603 31.4683 35.6468C31.2203 35.8332 30.9285 35.9337 30.6296 35.9356H30.6227Z" fill="#2B2A4C"/>
</g>
<defs>
<clipPath id="clip0_61_809">
<rect width="36" height="46" fill="white"/>
</clipPath>
</defs>
</svg>
