<svg width="100" height="100" viewBox="0 0 100 100" fill="none" xmlns="http://www.w3.org/2000/svg">
<g id="bxs:videos">
<path id="Vector" d="M16.6668 33.3334H8.3335V83.3334C8.3335 85.5435 9.21147 87.6631 10.7743 89.2259C12.3371 90.7887 14.4567 91.6667 16.6668 91.6667H66.6668V83.3334H16.6668V33.3334Z" fill="#182333"/>
<path id="Vector_2" d="M83.3333 8.33337H33.3333C31.1232 8.33337 29.0036 9.21135 27.4408 10.7742C25.878 12.337 25 14.4566 25 16.6667V66.6667C25 68.8768 25.878 70.9965 27.4408 72.5593C29.0036 74.1221 31.1232 75 33.3333 75H83.3333C85.5435 75 87.6631 74.1221 89.2259 72.5593C90.7887 70.9965 91.6667 68.8768 91.6667 66.6667V16.6667C91.6667 14.4566 90.7887 12.337 89.2259 10.7742C87.6631 9.21135 85.5435 8.33337 83.3333 8.33337ZM45.8333 58.3334V25L75 41.6667L45.8333 58.3334Z" fill="#182333"/>
</g>
</svg>
