<svg width="84" height="84" viewBox="0 0 84 84" fill="none" xmlns="http://www.w3.org/2000/svg">
<g id="Component 56">
<path id="Vector" d="M8.66683 25.3334H0.333496V75.3334C0.333496 77.5435 1.21147 79.6631 2.77427 81.2259C4.33708 82.7887 6.45669 83.6667 8.66683 83.6667H58.6668V75.3334H8.66683V25.3334Z" fill="white"/>
<path id="Vector_2" d="M75.3333 0.333374H25.3333C23.1232 0.333374 21.0036 1.21135 19.4408 2.77415C17.878 4.33695 17 6.45657 17 8.66671V58.6667C17 60.8768 17.878 62.9965 19.4408 64.5593C21.0036 66.1221 23.1232 67 25.3333 67H75.3333C77.5435 67 79.6631 66.1221 81.2259 64.5593C82.7887 62.9965 83.6667 60.8768 83.6667 58.6667V8.66671C83.6667 6.45657 82.7887 4.33695 81.2259 2.77415C79.6631 1.21135 77.5435 0.333374 75.3333 0.333374ZM37.8333 50.3334V17L67 33.6667L37.8333 50.3334Z" fill="white"/>
</g>
</svg>
