<svg width="45" height="45" viewBox="0 0 45 45" fill="none" xmlns="http://www.w3.org/2000/svg">
<g id="&#234;&#176;&#149;&#236;&#157;&#152;&#236;&#152;&#172;&#235;&#166;&#172;&#234;&#184;&#176; &#236;&#149;&#132;&#236;&#157;&#180;&#236;&#189;&#152;">
<path id="Vector" d="M40.8544 2.77502L41.9606 3.88127C43.485 5.40752 43.2544 8.11314 41.4413 9.92439L18.6281 32.7375L11.2369 35.4413C10.3088 35.7825 9.40501 35.34 9.22126 34.4569C9.15916 34.1365 9.1884 33.8052 9.30563 33.5006L12.0619 26.0456L34.8113 3.29439C36.6244 1.48314 39.33 1.24877 40.8544 2.77502ZM17.6325 5.04377C17.8787 5.04377 18.1226 5.09227 18.35 5.18649C18.5775 5.28072 18.7842 5.41883 18.9583 5.59294C19.1324 5.76705 19.2706 5.97375 19.3648 6.20124C19.459 6.42872 19.5075 6.67254 19.5075 6.91877C19.5075 7.165 19.459 7.40881 19.3648 7.6363C19.2706 7.86378 19.1324 8.07048 18.9583 8.24459C18.7842 8.4187 18.5775 8.55681 18.35 8.65104C18.1226 8.74527 17.8787 8.79377 17.6325 8.79377H10.1325C9.13795 8.79377 8.18412 9.18886 7.48086 9.89212C6.7776 10.5954 6.38251 11.5492 6.38251 12.5438V35.0438C6.38251 36.0383 6.7776 36.9922 7.48086 37.6954C8.18412 38.3987 9.13795 38.7938 10.1325 38.7938H32.6325C33.6271 38.7938 34.5809 38.3987 35.2842 37.6954C35.9874 36.9922 36.3825 36.0383 36.3825 35.0438V27.5438C36.3825 27.0465 36.5801 26.5696 36.9317 26.2179C37.2833 25.8663 37.7602 25.6688 38.2575 25.6688C38.7548 25.6688 39.2317 25.8663 39.5833 26.2179C39.935 26.5696 40.1325 27.0465 40.1325 27.5438V35.0438C40.1325 37.0329 39.3423 38.9405 37.9358 40.3471C36.5293 41.7536 34.6216 42.5438 32.6325 42.5438H10.1325C8.14338 42.5438 6.23573 41.7536 4.82921 40.3471C3.42268 38.9405 2.63251 37.0329 2.63251 35.0438V12.5438C2.63251 10.5546 3.42268 8.64699 4.82921 7.24047C6.23573 5.83394 8.14338 5.04377 10.1325 5.04377H17.6325Z" fill="#2B2A4C"/>
</g>
</svg>
