<svg width="100" height="100" viewBox="0 0 100 100" fill="none" xmlns="http://www.w3.org/2000/svg">
<path d="M71.4694 62.8931H66.9525L65.3516 61.3493C71.1485 54.6256 74.3345 46.0417 74.3282 37.1641C74.3282 29.8137 72.1486 22.6284 68.0649 16.5168C63.9813 10.4052 58.177 5.64183 51.3862 2.82896C44.5953 0.0161026 37.1229 -0.71987 29.9137 0.714114C22.7046 2.1481 16.0826 5.68763 10.8851 10.8851C5.68763 16.0826 2.1481 22.7046 0.714114 29.9137C-0.71987 37.1229 0.0161026 44.5953 2.82896 51.3862C5.64183 58.177 10.4052 63.9813 16.5168 68.0649C22.6284 72.1486 29.8137 74.3282 37.1641 74.3282C46.3694 74.3282 54.8313 70.9548 61.3493 65.3516L62.8931 66.9525V71.4694L91.4809 100L100 91.4809L71.4694 62.8931ZM37.1641 62.8931C22.9274 62.8931 11.4351 51.4008 11.4351 37.1641C11.4351 22.9274 22.9274 11.4351 37.1641 11.4351C51.4008 11.4351 62.8931 22.9274 62.8931 37.1641C62.8931 51.4008 51.4008 62.8931 37.1641 62.8931Z" fill="#BBC6D7"/>
</svg>
