<svg width="100" height="100" viewBox="0 0 100 100" fill="none" xmlns="http://www.w3.org/2000/svg">
<g id="ep:arrow-up-bold">
<path id="Vector" d="M33.0813 10.2251C31.9096 11.3971 31.2514 12.9865 31.2514 14.6438C31.2514 16.3011 31.9096 17.8905 33.0813 19.0626L64.0188 50.0001L33.0813 80.9376C31.9428 82.1163 31.3129 83.6951 31.3271 85.3338C31.3413 86.9726 31.9986 88.5401 33.1574 89.6989C34.3163 90.8577 35.8838 91.515 37.5226 91.5293C39.1613 91.5435 40.7401 90.9136 41.9188 89.7751L77.2751 54.4188C78.4468 53.2468 79.105 51.6573 79.105 50.0001C79.105 48.3428 78.4468 46.7534 77.2751 45.5813L41.9188 10.2251C40.7468 9.05336 39.1573 8.39514 37.5001 8.39514C35.8428 8.39514 34.2534 9.05336 33.0813 10.2251Z" fill="#7E8794"/>
</g>
</svg>
