<svg width="100" height="100" viewBox="0 0 100 100" fill="none" xmlns="http://www.w3.org/2000/svg">
<g id="ep:arrow-up-bold">
<path id="Vector" d="M27.8653 5.08468C26.6936 6.25672 26.0353 7.84615 26.0353 9.50343C26.0353 11.1607 26.6936 12.7501 27.8653 13.9222L58.8028 44.8597L27.8653 75.7972C26.7268 76.9759 26.0968 78.5547 26.111 80.1934C26.1253 81.8322 26.7826 83.3998 27.9414 84.5586C29.1002 85.7174 30.6678 86.3747 32.3065 86.3889C33.9452 86.4031 35.524 85.7732 36.7027 84.6347L72.059 49.2784C73.2307 48.1064 73.8889 46.517 73.8889 44.8597C73.8889 43.2024 73.2307 41.613 72.059 40.4409L36.7027 5.08468C35.5307 3.91298 33.9413 3.25476 32.284 3.25476C30.6267 3.25476 29.0373 3.91298 27.8653 5.08468Z" fill="#BBC6D7"/>
</g>
</svg>
