<svg width="100" height="100" viewBox="0 0 100 100" fill="none" xmlns="http://www.w3.org/2000/svg">
<g id="ep:arrow-up-bold">
<path id="Vector" d="M72.0591 84.5592C73.2308 83.3872 73.889 81.7978 73.889 80.1405C73.889 78.4832 73.2308 76.8938 72.0591 75.7217L41.1216 44.7842L72.0591 13.8467C73.1976 12.668 73.8275 11.0892 73.8133 9.45048C73.799 7.81175 73.1417 6.24417 71.9829 5.08537C70.8241 3.92657 69.2566 3.26927 67.6178 3.25503C65.9791 3.24079 64.4003 3.87075 63.2216 5.00924L27.8653 40.3655C26.6936 41.5375 26.0354 43.127 26.0354 44.7842C26.0354 46.4415 26.6936 48.0309 27.8653 49.203L63.2216 84.5592C64.3936 85.7309 65.983 86.3892 67.6403 86.3892C69.2976 86.3892 70.887 85.7309 72.0591 84.5592Z" fill="#BBC6D7"/>
</g>
</svg>
