<svg width="100" height="100" viewBox="0 0 100 100" fill="none" xmlns="http://www.w3.org/2000/svg">
<g id="ep:arrow-up-bold">
<path id="Vector" d="M66.9187 89.7749C68.0904 88.6029 68.7486 87.0135 68.7486 85.3562C68.7486 83.6989 68.0904 82.1095 66.9187 80.9374L35.9812 49.9999L66.9187 19.0624C68.0572 17.8837 68.6871 16.3049 68.6729 14.6662C68.6587 13.0274 68.0014 11.4599 66.8426 10.3011C65.6837 9.14226 64.1162 8.48497 62.4774 8.47073C60.8387 8.45649 59.2599 9.08645 58.0812 10.2249L22.7249 45.5812C21.5532 46.7532 20.895 48.3427 20.895 49.9999C20.895 51.6572 21.5532 53.2466 22.7249 54.4187L58.0812 89.7749C59.2532 90.9466 60.8427 91.6049 62.4999 91.6049C64.1572 91.6049 65.7466 90.9466 66.9187 89.7749Z" fill="#7E8794"/>
</g>
</svg>
