<svg width="100" height="100" viewBox="0 0 100 100" fill="none" xmlns="http://www.w3.org/2000/svg">
<g id="ep:arrow-up-bold">
<path id="Vector" d="M66.9187 89.7751C68.0904 88.603 68.7486 87.0136 68.7486 85.3563C68.7486 83.699 68.0904 82.1096 66.9187 80.9376L35.9812 50.0001L66.9187 19.0626C68.0572 17.8838 68.6871 16.305 68.6729 14.6663C68.6587 13.0276 68.0014 11.46 66.8426 10.3012C65.6837 9.14239 64.1162 8.48509 62.4774 8.47085C60.8387 8.45661 59.2599 9.08657 58.0812 10.2251L22.7249 45.5813C21.5532 46.7534 20.895 48.3428 20.895 50.0001C20.895 51.6573 21.5532 53.2468 22.7249 54.4188L58.0812 89.7751C59.2532 90.9468 60.8427 91.605 62.4999 91.605C64.1572 91.605 65.7466 90.9468 66.9187 89.7751Z" fill="#7E8794"/>
</g>
</svg>
