<svg width="100" height="100" viewBox="0 0 100 100" fill="none" xmlns="http://www.w3.org/2000/svg">
<g id="ep:arrow-up-bold">
<path id="Vector" d="M33.0813 10.2249C31.9096 11.397 31.2514 12.9864 31.2514 14.6437C31.2514 16.301 31.9096 17.8904 33.0813 19.0624L64.0188 49.9999L33.0813 80.9374C31.9428 82.1162 31.3129 83.695 31.3271 85.3337C31.3413 86.9724 31.9986 88.54 33.1574 89.6988C34.3163 90.8576 35.8838 91.5149 37.5226 91.5292C39.1613 91.5434 40.7401 90.9134 41.9188 89.7749L77.2751 54.4187C78.4468 53.2466 79.105 51.6572 79.105 49.9999C79.105 48.3427 78.4468 46.7532 77.2751 45.5812L41.9188 10.2249C40.7468 9.05324 39.1573 8.39502 37.5001 8.39502C35.8428 8.39502 34.2534 9.05324 33.0813 10.2249Z" fill="#7E8794"/>
</g>
</svg>
