<svg width="21" height="11" viewBox="0 0 21 11" fill="none" xmlns="http://www.w3.org/2000/svg">
<path d="M1.68725 10.2273C1.59178 10.3176 1.47947 10.3881 1.35674 10.4349C1.23401 10.4817 1.10327 10.5039 0.971965 10.5002C0.840663 10.4965 0.711378 10.4669 0.591492 10.4132C0.471606 10.3596 0.363467 10.2828 0.273249 10.1873C0.183031 10.0919 0.112501 9.97956 0.0656852 9.85683C0.0188697 9.7341 -0.00331434 9.60335 0.000400002 9.47205C0.00411435 9.34075 0.0336542 9.21146 0.0873329 9.09158C0.141012 8.97169 0.217778 8.86355 0.313249 8.77333L9.31325 0.273334C9.49892 0.0977974 9.74474 -1.04904e-05 10.0002 -1.04904e-05C10.2558 -1.04904e-05 10.5016 0.0977974 10.6872 0.273334L19.6882 8.77333C19.7858 8.86296 19.8646 8.97107 19.92 9.0914C19.9754 9.21172 20.0064 9.34186 20.0111 9.47426C20.0158 9.60665 19.9942 9.73866 19.9474 9.86262C19.9007 9.98658 19.8298 10.1 19.7388 10.1963C19.6479 10.2927 19.5387 10.3699 19.4176 10.4237C19.2965 10.4775 19.166 10.5066 19.0335 10.5095C18.9011 10.5124 18.7694 10.489 18.6461 10.4405C18.5228 10.3921 18.4103 10.3196 18.3153 10.2273L10.0002 2.37533L1.68725 10.2273Z" fill="#7E8794"/>
</svg>
