<svg width="21" height="11" viewBox="0 0 21 11" fill="none" xmlns="http://www.w3.org/2000/svg">
<path d="M18.3245 0.282432C18.4199 0.192214 18.5322 0.121684 18.655 0.0748688C18.7777 0.0280533 18.9085 0.00586875 19.0398 0.00958309C19.1711 0.0132974 19.3003 0.0428375 19.4202 0.0965162C19.5401 0.150195 19.6483 0.226961 19.7385 0.322432C19.8287 0.417903 19.8992 0.53021 19.946 0.652938C19.9928 0.775667 20.015 0.906414 20.0113 1.03772C20.0076 1.16902 19.9781 1.2983 19.9244 1.41819C19.8707 1.53808 19.7939 1.64621 19.6985 1.73643L10.6985 10.2364C10.5128 10.412 10.267 10.5098 10.0115 10.5098C9.75596 10.5098 9.51014 10.412 9.32447 10.2364L0.323469 1.73643C0.225908 1.64681 0.147125 1.53869 0.0917015 1.41837C0.0362778 1.29804 0.00531387 1.1679 0.000610352 1.03551C-0.00409317 0.903112 0.0175571 0.771103 0.0643024 0.647146C0.111048 0.523189 0.181957 0.409756 0.272911 0.313435C0.363865 0.217115 0.473053 0.139826 0.59413 0.0860601C0.715206 0.0322939 0.84576 0.00312155 0.978207 0.000237084C1.11065 -0.00264739 1.24235 0.0208133 1.36566 0.0692574C1.48896 0.117701 1.60141 0.190163 1.69647 0.282432L10.0115 8.13443L18.3245 0.282432Z" fill="#7E8794"/>
</svg>
