<svg width="27" height="33" viewBox="0 0 27 33" fill="none" xmlns="http://www.w3.org/2000/svg">
<path d="M10.5 29.8571H16.5C16.5 31.5857 15.15 33 13.5 33C11.85 33 10.5 31.5857 10.5 29.8571ZM27 26.7143V28.2857H0V26.7143L3 23.5714V14.1429C3 9.27143 6 5.02857 10.5 3.61429V3.14286C10.5 1.41429 11.85 0 13.5 0C15.15 0 16.5 1.41429 16.5 3.14286V3.61429C21 5.02857 24 9.27143 24 14.1429V23.5714L27 26.7143ZM21 14.1429C21 9.74286 17.7 6.28571 13.5 6.28571C9.3 6.28571 6 9.74286 6 14.1429V25.1429H21V14.1429Z" fill="#7E8794"/>
</svg>
