<svg width="459" height="283" viewBox="0 0 459 283" fill="none" xmlns="http://www.w3.org/2000/svg">
<path d="M229.5 283L227.5 282.5L226 281.5C222 279 218 268.5 216 259L209 226.4H45.9C33.7266 226.4 22.0517 223.418 13.4438 218.111C4.83588 212.804 0 205.606 0 198.1V28.3C0 20.7944 4.83588 13.5962 13.4438 8.28888C22.0517 2.9816 33.7266 0 45.9 0H413.1C425.273 0 436.948 2.9816 445.556 8.28888C454.164 13.5962 459 20.7944 459 28.3V198.1C459 205.606 454.164 212.804 445.556 218.111C436.948 223.418 425.273 226.4 413.1 226.4H250L244 259C242.5 265.5 237 279 233 281.5L231.5 282.5L229.5 283Z" fill="#F8F8F8"/>
</svg>
