<svg width="13" height="63" viewBox="0 0 13 63" fill="none" xmlns="http://www.w3.org/2000/svg">
<path d="M0 56.25C0 54.5924 0.65848 53.0027 1.83058 51.8306C3.00269 50.6585 4.5924 50 6.25 50C7.9076 50 9.49731 50.6585 10.6694 51.8306C11.8415 53.0027 12.5 54.5924 12.5 56.25C12.5 57.9076 11.8415 59.4973 10.6694 60.6694C9.49731 61.8415 7.9076 62.5 6.25 62.5C4.5924 62.5 3.00269 61.8415 1.83058 60.6694C0.65848 59.4973 0 57.9076 0 56.25ZM0 31.25C0 29.5924 0.65848 28.0027 1.83058 26.8306C3.00269 25.6585 4.5924 25 6.25 25C7.9076 25 9.49731 25.6585 10.6694 26.8306C11.8415 28.0027 12.5 29.5924 12.5 31.25C12.5 32.9076 11.8415 34.4973 10.6694 35.6694C9.49731 36.8415 7.9076 37.5 6.25 37.5C4.5924 37.5 3.00269 36.8415 1.83058 35.6694C0.65848 34.4973 0 32.9076 0 31.25ZM0 6.25C0 4.5924 0.65848 3.00269 1.83058 1.83058C3.00269 0.65848 4.5924 0 6.25 0C7.9076 0 9.49731 0.65848 10.6694 1.83058C11.8415 3.00269 12.5 4.5924 12.5 6.25C12.5 7.9076 11.8415 9.49731 10.6694 10.6694C9.49731 11.8415 7.9076 12.5 6.25 12.5C4.5924 12.5 3.00269 11.8415 1.83058 10.6694C0.65848 9.49731 0 7.9076 0 6.25Z" fill="#F8F8F8"/>
</svg>
