<svg width="100" height="100" viewBox="0 0 100 100" fill="none" xmlns="http://www.w3.org/2000/svg">
<path d="M19.1507 33.3335L62.5006 76.6835V82.5251C62.5009 83.3677 62.2689 84.194 61.8302 84.9133C61.3915 85.6325 60.763 86.217 60.0138 86.6024C59.2645 86.9877 58.4236 87.1591 57.5833 87.0977C56.743 87.0363 55.9359 86.7445 55.2507 86.2543L27.834 66.6668H16.6673C14.4572 66.6668 12.3376 65.7888 10.7748 64.226C9.21196 62.6632 8.33398 60.5436 8.33398 58.3335V41.6668C8.33398 39.4567 9.21196 37.3371 10.7748 35.7743C12.3376 34.2114 14.4572 33.3335 16.6673 33.3335H19.1507ZM62.5006 17.4751V56.6085L67.1382 61.246C66.7506 60.5036 66.5959 59.6616 66.694 58.8299C66.7921 57.9982 67.1385 57.2153 67.6882 56.5835L68.0548 56.2126C69.7631 54.6793 70.834 52.4668 70.834 50.0001C70.8389 47.8664 70.0211 45.8129 68.5506 44.2668L68.0548 43.7876C67.2433 43.0474 66.7569 42.0167 66.7014 40.9198C66.6459 39.8228 67.0258 38.7483 67.7585 37.93C68.4911 37.1116 69.5172 36.6157 70.6137 36.55C71.7101 36.4844 72.7881 36.8543 73.6131 37.5793C75.3619 39.1414 76.7608 41.0554 77.718 43.196C78.6752 45.3366 79.1691 47.6553 79.1673 50.0001C79.1699 52.3451 78.6763 54.6641 77.7191 56.8048C76.7618 58.9455 75.3626 60.8594 73.6131 62.421C72.9818 62.987 72.1927 63.3468 71.3514 63.4526C70.5101 63.5583 69.6566 63.4048 68.9048 63.0126L75.0298 69.1376C74.9485 68.4712 75.0295 67.795 75.266 67.1667C75.5025 66.5384 75.8875 65.9766 76.3881 65.5293C78.5764 63.5777 80.3267 61.185 81.5238 58.5084C82.721 55.8319 83.3379 52.9322 83.334 50.0001C83.334 43.8335 80.659 38.2918 76.3881 34.471C75.9747 34.1076 75.6373 33.666 75.3955 33.1715C75.1537 32.6771 75.0122 32.1396 74.9793 31.5901C74.9464 31.0407 75.0227 30.4902 75.2037 29.9704C75.3848 29.4506 75.6671 28.9718 76.0342 28.5617C76.4014 28.1517 76.8461 27.8184 77.3428 27.5812C77.8395 27.344 78.3783 27.2075 78.928 27.1797C79.4777 27.1519 80.0275 27.2333 80.5456 27.4191C81.0637 27.605 81.5398 27.8917 81.9465 28.2626C85.0078 30.9958 87.4564 34.3454 89.1317 38.0917C90.807 41.8381 91.6711 45.8963 91.6673 50.0001C91.6711 54.104 90.807 58.1622 89.1317 61.9085C87.4564 65.6548 85.0078 69.0045 81.9465 71.7376C81.5047 72.1343 80.9831 72.4317 80.4168 72.61C79.8504 72.7882 79.2525 72.8431 78.6631 72.771L85.3548 79.4626C86.1138 80.2485 86.5338 81.301 86.5243 82.3935C86.5148 83.486 86.0766 84.531 85.3041 85.3035C84.5315 86.0761 83.4865 86.5143 82.394 86.5238C81.3015 86.5333 80.249 86.1133 79.4631 85.3543L14.6465 20.5418C14.2485 20.1574 13.9311 19.6977 13.7127 19.1893C13.4944 18.681 13.3794 18.1342 13.3746 17.581C13.3698 17.0277 13.4752 16.4791 13.6847 15.967C13.8942 15.4549 14.2036 14.9897 14.5948 14.5985C14.9861 14.2073 15.4513 13.8979 15.9633 13.6884C16.4754 13.4789 17.0241 13.3735 17.5773 13.3783C18.1306 13.3831 18.6773 13.498 19.1857 13.7164C19.694 13.9348 20.1538 14.2522 20.5382 14.6501L34.4798 28.5835L55.2548 13.7418C55.9403 13.2526 56.7474 12.9617 57.5874 12.9011C58.4274 12.8404 59.2679 13.0124 60.0166 13.3982C60.7652 13.7839 61.3931 14.3685 61.8313 15.0877C62.2696 15.8069 62.5011 16.6329 62.5006 17.4751Z" fill="black"/>
</svg>
