<svg width="100" height="119" viewBox="0 0 100 119" fill="none" xmlns="http://www.w3.org/2000/svg">
<path d="M100 59.0937C100.004 60.6371 99.608 62.1551 98.8513 63.5002C98.0946 64.8453 97.0027 65.9717 95.6818 66.7699L13.8182 116.849C12.438 117.695 10.8572 118.156 9.23908 118.186C7.62096 118.216 6.02417 117.813 4.61364 117.02C3.21653 116.239 2.05271 115.1 1.24184 113.719C0.430974 112.339 0.00233442 110.768 0 109.168V9.01988C0.00233442 7.41923 0.430974 5.84808 1.24184 4.46801C2.05271 3.08794 3.21653 1.94876 4.61364 1.16761C6.02417 0.374134 7.62096 -0.0284064 9.23908 0.00155879C10.8572 0.031524 12.438 0.492909 13.8182 1.33806L95.6818 51.4176C97.0027 52.2157 98.0946 53.3421 98.8513 54.6872C99.608 56.0324 100.004 57.5504 100 59.0937Z" fill="black"/>
</svg>
