<svg width="45" height="45" viewBox="0 0 45 45" fill="none" xmlns="http://www.w3.org/2000/svg">
<path d="M22.5 42.1875C11.6438 42.1875 2.8125 33.3562 2.8125 22.5C2.8125 11.6438 11.6438 2.8125 22.5 2.8125C33.3562 2.8125 42.1875 11.6438 42.1875 22.5C42.1875 33.3562 33.3562 42.1875 22.5 42.1875ZM22.5 5.625C13.1906 5.625 5.625 13.1906 5.625 22.5C5.625 31.8094 13.1906 39.375 22.5 39.375C31.8094 39.375 39.375 31.8094 39.375 22.5C39.375 13.1906 31.8094 5.625 22.5 5.625Z" fill="#A9A29F"/>
<path d="M22.5 32.3438C21.7125 32.3438 21.0938 31.725 21.0938 30.9375V14.0625C21.0938 13.275 21.7125 12.6562 22.5 12.6562C23.2875 12.6562 23.9062 13.275 23.9062 14.0625V30.9375C23.9062 31.725 23.2875 32.3438 22.5 32.3438Z" fill="#A9A29F"/>
<path d="M30.9375 23.9062H14.0625C13.275 23.9062 12.6562 23.2875 12.6562 22.5C12.6562 21.7125 13.275 21.0938 14.0625 21.0938H30.9375C31.725 21.0938 32.3438 21.7125 32.3438 22.5C32.3438 23.2875 31.725 23.9062 30.9375 23.9062Z" fill="#A9A29F"/>
</svg>
