<svg width="438" height="376" viewBox="0 0 438 376" fill="none" xmlns="http://www.w3.org/2000/svg">
<path d="M250.334 0.840332C200.606 0.840332 152.915 20.5948 117.751 55.7578C82.5884 90.9208 62.834 138.612 62.834 188.34H0.333984L82.834 272.299L167.001 188.34H104.501C104.501 149.663 119.865 112.57 147.214 85.2206C174.563 57.8716 211.657 42.507 250.334 42.507C289.011 42.507 326.105 57.8716 353.454 85.2206C380.803 112.57 396.167 149.663 396.167 188.34C396.167 227.018 380.803 264.111 353.454 291.46C326.105 318.809 289.011 334.174 250.334 334.174C210.126 334.174 173.667 317.715 147.417 291.257L117.834 320.84C135.156 338.353 155.796 352.237 178.546 361.681C201.297 371.124 225.702 375.938 250.334 375.84C300.062 375.84 347.753 356.086 382.917 320.923C418.08 285.76 437.834 238.068 437.834 188.34C437.834 138.612 418.08 90.9208 382.917 55.7578C347.753 20.5948 300.062 0.840332 250.334 0.840332Z" fill="black"/>
</svg>
