<svg width="402" height="407" viewBox="0 0 402 407" fill="none" xmlns="http://www.w3.org/2000/svg">
<path d="M108.475 6.09972C112.38 10.0065 114.574 15.3046 114.574 20.8289C114.574 26.3531 112.38 31.6512 108.475 35.5581L71.1206 72.9122H234.371C267.334 72.9122 299.557 82.6871 326.966 101.001C354.374 119.314 375.736 145.344 388.35 175.798C400.965 206.253 404.266 239.764 397.835 272.094C391.404 304.424 375.53 334.121 352.222 357.43C328.913 380.739 299.216 396.612 266.886 403.043C234.555 409.474 201.044 406.173 170.59 393.559C140.136 380.944 114.106 359.582 95.7923 332.174C77.4787 304.766 67.7039 272.542 67.7039 239.579C67.7039 234.054 69.8988 228.755 73.8058 224.848C77.7128 220.94 83.0119 218.746 88.5372 218.746C94.0626 218.746 99.3616 220.94 103.269 224.848C107.176 228.755 109.371 234.054 109.371 239.579C109.371 264.302 116.702 288.469 130.437 309.025C144.172 329.581 163.694 345.603 186.535 355.064C209.376 364.525 234.509 367 258.757 362.177C283.004 357.354 305.277 345.449 322.759 327.967C340.24 310.486 352.146 288.213 356.969 263.965C361.792 239.718 359.316 214.584 349.856 191.743C340.395 168.903 324.373 149.38 303.817 135.645C283.261 121.91 259.093 114.579 234.371 114.579H71.1206L108.475 151.933C112.27 155.862 114.37 161.125 114.322 166.587C114.275 172.05 112.084 177.275 108.221 181.138C104.358 185 99.133 187.191 93.6706 187.239C88.2081 187.286 82.9456 185.186 79.0164 181.391L6.09972 108.475C2.19407 104.568 0 99.2698 0 93.7456C0 88.2213 2.19407 82.9232 6.09972 79.0164L79.0164 6.09972C82.9232 2.19407 88.2213 0 93.7456 0C99.2698 0 104.568 2.19407 108.475 6.09972Z" fill="black"/>
</svg>
