<svg width="429" height="411" viewBox="0 0 429 411" fill="none" xmlns="http://www.w3.org/2000/svg">
<path d="M31.969 2.23678C14.7726 -5.9775 -4.1203 9.73679 0.790418 28.1475L36.7904 162.665C37.6926 166.046 39.5682 169.087 42.1842 171.411C44.8001 173.735 48.0412 175.239 51.5047 175.737L228.005 200.951C233.112 201.665 233.112 209.058 228.005 209.79L51.5226 234.987C48.059 235.484 44.818 236.988 42.202 239.312C39.5861 241.636 37.7105 244.677 36.8083 248.058L0.790418 382.647C-4.1203 401.04 14.7726 416.755 31.969 408.558L415.862 225.54C432.808 217.469 432.808 193.326 415.862 185.237L31.969 2.23678Z" fill="black"/>
</svg>
