<svg width="100" height="100" viewBox="0 0 100 100" fill="none" xmlns="http://www.w3.org/2000/svg">
<path d="M55.2497 13.7498C55.9018 13.2833 56.6649 12.996 57.4627 12.9167C58.2606 12.8373 59.0653 12.9687 59.7965 13.2976C60.5278 13.6265 61.1599 14.1415 61.6299 14.7911C62.0998 15.4408 62.3911 16.2023 62.4747 16.9998L62.4997 17.4748V82.5248C62.4999 83.3266 62.2899 84.1145 61.8904 84.8097C61.4909 85.5049 60.9161 86.0832 60.2232 86.4868C59.5303 86.8903 58.7437 87.1051 57.9419 87.1096C57.1401 87.114 56.3512 86.9081 55.6538 86.5123L55.2538 86.2539L27.833 66.6664H16.6663C14.5639 66.6671 12.539 65.8731 10.9974 64.4435C9.4558 63.014 8.51152 61.0546 8.35384 58.9581L8.33301 58.3331V41.6664C8.33234 39.564 9.12637 37.5391 10.5559 35.9975C11.9855 34.4559 13.9449 33.5116 16.0413 33.3539L16.6663 33.3331H27.833L55.2497 13.7498ZM81.9455 28.2623C85.0068 30.9954 87.4554 34.3451 89.1308 38.0914C90.8061 41.8377 91.6702 45.8959 91.6663 49.9998C91.6702 54.1036 90.8061 58.1619 89.1308 61.9082C87.4554 65.6545 85.0068 69.0041 81.9455 71.7373C81.5389 72.1082 81.0627 72.3949 80.5446 72.5808C80.0265 72.7667 79.4768 72.848 78.927 72.8202C78.3773 72.7924 77.8385 72.656 77.3419 72.4187C76.8452 72.1815 76.4004 71.8482 76.0333 71.4382C75.6661 71.0281 75.3838 70.5493 75.2028 70.0295C75.0217 69.5097 74.9454 68.9592 74.9783 68.4098C75.0112 67.8603 75.1527 67.3229 75.3945 66.8284C75.6363 66.3339 75.9737 65.8923 76.3872 65.5289C78.5754 63.5774 80.3257 61.1846 81.5228 58.5081C82.72 55.8315 83.3369 52.9318 83.333 49.9998C83.333 43.8331 80.658 38.2914 76.3872 34.4706C75.9737 34.1073 75.6363 33.6656 75.3945 33.1712C75.1527 32.6767 75.0112 32.1392 74.9783 31.5898C74.9454 31.0403 75.0217 30.4898 75.2028 29.97C75.3838 29.4502 75.6661 28.9715 76.0333 28.5614C76.4004 28.1513 76.8452 27.818 77.3419 27.5808C77.8385 27.3436 78.3773 27.2071 78.927 27.1793C79.4768 27.1515 80.0265 27.2329 80.5446 27.4188C81.0627 27.6046 81.5389 27.8913 81.9455 28.2623ZM73.6122 37.5789C75.3607 39.1403 76.7593 41.0537 77.7165 43.1936C78.6737 45.3334 79.1678 47.6514 79.1663 49.9956C79.1692 52.3412 78.6758 54.6609 77.7186 56.8023C76.7614 58.9437 75.3619 60.8584 73.6122 62.4206C72.822 63.1224 71.7947 63.4977 70.7383 63.4705C69.6818 63.4434 68.6752 63.0158 67.9221 62.2744C67.169 61.533 66.7258 60.5331 66.6822 59.4772C66.6386 58.4213 66.9978 57.3883 67.6872 56.5873L68.0538 56.2123C69.7622 54.6789 70.833 52.4664 70.833 49.9998C70.8379 47.8661 70.0201 45.8126 68.5497 44.2664L68.0538 43.7873C67.6404 43.4239 67.303 42.9823 67.0612 42.4878C66.8194 41.9934 66.6779 41.4559 66.645 40.9064C66.6121 40.357 66.6884 39.8065 66.8694 39.2867C67.0505 38.7669 67.3328 38.2881 67.6999 37.878C68.0671 37.468 68.5118 37.1347 69.0085 36.8975C69.5052 36.6602 70.044 36.5238 70.5937 36.496C71.1434 36.4682 71.6932 36.5496 72.2113 36.7354C72.7294 36.9213 73.2055 37.208 73.6122 37.5789Z" fill="black"/>
</svg>
