<svg width="84" height="84" viewBox="0 0 84 84" fill="none" xmlns="http://www.w3.org/2000/svg">
<g id="Group">
<path id="Vector" d="M58.6668 33.6667C58.6668 38.0869 56.9109 42.3262 53.7853 45.4518C50.6597 48.5774 46.4204 50.3333 42.0002 50.3333C37.5799 50.3333 33.3407 48.5774 30.215 45.4518C27.0894 42.3262 25.3335 38.0869 25.3335 33.6667C25.3335 29.2464 27.0894 25.0072 30.215 21.8816C33.3407 18.7559 37.5799 17 42.0002 17C46.4204 17 50.6597 18.7559 53.7853 21.8816C56.9109 25.0072 58.6668 29.2464 58.6668 33.6667Z" fill="#7E8794"/>
<path id="Vector_2" fill-rule="evenodd" clip-rule="evenodd" d="M40.3002 83.6334C18.0772 82.7417 0.333496 64.4417 0.333496 42C0.333496 18.9875 18.9877 0.333374 42.0002 0.333374C65.0127 0.333374 83.6668 18.9875 83.6668 42C83.6668 65.0125 65.0127 83.6667 42.0002 83.6667C41.8099 83.6679 41.6196 83.6679 41.4293 83.6667C41.0522 83.6667 40.6752 83.6542 40.3002 83.6334ZM15.2627 68.2917C14.9511 67.3971 14.8451 66.4437 14.9524 65.5025C15.0597 64.5613 15.3777 63.6563 15.8826 62.8548C16.3876 62.0532 17.0665 61.3757 17.8692 60.8725C18.6718 60.3692 19.5775 60.0533 20.5189 59.948C36.7606 58.15 47.3397 58.3125 63.5022 59.9855C64.445 60.0836 65.3529 60.3956 66.1568 60.8977C66.9607 61.3998 67.6394 62.0787 68.1413 62.8828C68.6432 63.6868 68.9549 64.5948 69.0529 65.5375C69.1508 66.4803 69.0323 67.4329 68.7064 68.323C75.6334 61.3144 79.5126 51.8541 79.5002 42C79.5002 21.2896 62.7106 4.50004 42.0002 4.50004C21.2897 4.50004 4.50016 21.2896 4.50016 42C4.50016 52.2417 8.60641 61.525 15.2627 68.2917Z" fill="#7E8794"/>
</g>
</svg>
