<?xml version="1.0" encoding="UTF-8"?>
<!--Generator: Apple Native CoreSVG 175.5-->
<!DOCTYPE svg
PUBLIC "-//W3C//DTD SVG 1.1//EN"
       "http://www.w3.org/Graphics/SVG/1.1/DTD/svg11.dtd">
<svg version="1.1" xmlns="http://www.w3.org/2000/svg" xmlns:xlink="http://www.w3.org/1999/xlink" width="16.2695" height="22.9004">
 <g>
  <rect height="22.9004" opacity="0" width="16.2695" x="0" y="0"/>
  <path d="M7.67578 21.123C12.832 21.123 16.2695 17.6367 16.2695 12.3828C16.2695 3.64258 8.82812 0 3.66211 0C2.74414 0 2.1582 0.322266 2.1582 0.947266C2.1582 1.19141 2.26562 1.44531 2.4707 1.67969C3.63281 3.06641 4.79492 4.7168 4.81445 6.64062C4.81445 7.08008 4.76562 7.4707 4.45312 8.01758L4.94141 7.91992C4.50195 6.48438 3.32031 5.46875 2.28516 5.46875C1.88477 5.46875 1.61133 5.76172 1.61133 6.20117C1.61133 6.45508 1.67969 7.05078 1.67969 7.48047C1.67969 9.66797 0 10.9473 0 14.4727C0 18.4668 3.05664 21.123 7.67578 21.123ZM7.90039 18.3789C6.07422 18.3789 4.86328 17.2754 4.86328 15.6348C4.86328 13.916 6.08398 13.3008 6.24023 12.1973C6.25977 12.1094 6.31836 12.0801 6.38672 12.1387C6.83594 12.5391 7.12891 13.0273 7.37305 13.5938C7.89062 12.8906 8.13477 11.4062 7.96875 9.80469C7.95898 9.7168 8.01758 9.66797 8.10547 9.69727C10.2441 10.7031 11.3574 12.832 11.3574 14.7363C11.3574 16.6699 10.2246 18.3789 7.90039 18.3789Z" fill="#ffd60a"/>
 </g>
</svg>
